<svg width="1119" height="219" viewBox="0 0 1119 219" fill="none" xmlns="http://www.w3.org/2000/svg">
<g clip-path="url(#clip0_329_681)">
<path d="M375.109 170.768C373.693 169.512 372.181 168.369 370.585 167.35C370.052 166.983 369.52 166.604 369.001 166.211C366.978 164.778 365.256 162.963 363.932 160.869C363.323 159.92 362.664 158.97 362.094 158.033C361.524 157.097 361.156 156.084 360.687 155.299C359.661 153.954 358.449 152.761 357.088 151.755C355.545 150.384 354.077 148.93 352.691 147.4C351.778 146.113 350.788 144.883 349.725 143.716C348.914 142.995 348.015 142.64 347.191 141.881L345.658 139.842C344.982 139.323 344.211 138.941 343.389 138.716C342.56 137.92 341.836 137.023 341.235 136.045C339.207 132.956 336.825 130.487 333.91 131.943C332.362 132.588 331.039 133.676 330.108 135.07C328.841 136.779 328.093 137.412 326.395 137.058C323.455 136.437 321.592 132.108 318.893 131.158C317.681 130.876 316.411 130.973 315.256 131.437C314.331 131.842 313.583 133.412 312.62 133.969C310.161 135.235 307.12 133.247 304.623 134.374C302.71 135.247 300.34 138.741 298.857 140.893C297.11 143.334 295.535 145.893 294.143 148.552C293.511 149.988 292.627 151.3 291.532 152.425C289.872 153.983 287.376 154.476 285.449 155.033C282.231 155.957 279.62 157.995 276.642 159.907C272.549 162.54 268.658 165.857 264.603 168.629C264.109 168.971 263.336 169.047 262.892 169.464C261.866 170.363 261.726 171.642 260.877 172.756C259.61 174.414 258.114 175.781 256.809 177.503L256.176 178.313C251.794 184.086 246.658 189.246 240.905 193.656C238.856 194.986 237.026 196.626 235.481 198.517C234.562 200.003 233.496 201.394 232.3 202.669C231.299 203.517 230.196 203.694 229.17 204.454C227.903 205.391 226.635 206.986 225.444 208.125C223.201 210.214 220.806 211.733 218.816 214.454C217.541 216.064 216.179 217.602 214.736 219.062C213.139 220.847 211.732 222.86 210.275 224.847C209.45 225.849 208.561 226.796 207.614 227.683C206.473 228.949 205.573 230.544 204.433 231.696C202.836 233.316 200.808 233.747 199.199 235.418C197.59 237.089 195.461 238.101 193.826 240.038C192.811 241.437 191.384 242.486 189.745 243.038C188.579 243.355 187.464 243.038 186.311 243.367C185.436 243.671 184.701 244.519 183.84 244.899C182.264 245.808 180.594 246.543 178.859 247.089C177.871 247.279 176.92 246.836 175.919 247.178C174.718 247.777 173.577 248.49 172.51 249.305C170.736 250.57 169 251.836 169 251.836L181.356 268.546L200.694 294.662L215.319 314.384L245.328 299.459L401.95 221.607C400.176 221.366 376.503 172.085 375.109 170.768Z" fill="url(#paint0_linear_329_681)"/>
<path d="M521.951 176.618C521.634 174.086 518.402 171.162 517.211 169.782C515.348 167.616 513.609 165.346 512.003 162.984C510.474 160.544 509.107 158.007 507.909 155.389C507.657 154.811 507.291 154.29 506.832 153.857C506.059 153.224 505.159 153.351 504.298 153.072C501.763 152.211 500.724 148.806 499.051 146.198C497.594 143.945 496.06 144.641 494.451 145.743C492.531 147.005 490.82 148.559 489.382 150.351C488.292 151.73 487.253 153.819 485.669 153.528C483.324 153.11 481.93 148.945 479.725 148.578C478.04 148.3 476.709 150.262 475.353 151.502C474.491 152.3 473.706 153.237 472.819 154.034C469.308 157.098 467.04 162.566 463.454 165.63C459.867 168.693 452.327 173.618 449.514 167.934C449.209 167.301 448.931 165.554 448.652 165.225C448.031 164.503 446.231 165.035 445.56 165.124C443.785 165.377 442.315 166.554 440.63 167.035C439.662 167.229 438.664 167.222 437.698 167.015C436.733 166.808 435.82 166.406 435.016 165.832C433.026 164.44 431.797 160.769 429.871 159.503C428.363 158.49 425.233 159.275 423.788 159.984C422.039 160.845 420.518 162.364 418.782 163.212C417.197 163.94 415.453 164.253 413.713 164.123C411.484 164.17 409.325 164.914 407.542 166.25C405.919 167.351 404.487 169.111 402.878 170.2C401.533 171.226 400.358 172.457 399.393 173.846C397.834 175.63 395.794 173.213 393.792 173.972C391.574 175.015 389.594 176.501 387.975 178.339C386.708 179.732 385.821 182.137 384.591 183.644C383.556 184.882 382.202 185.814 380.675 186.34C378.614 187.327 376.706 188.606 375.011 190.138L431.86 251.673L527.831 176.82L521.951 176.618Z" fill="#D2E2CA"/>
<path d="M432.646 201.176C432.329 198.645 429.098 195.72 427.919 194.353C426.049 192.186 424.305 189.912 422.698 187.543C421.174 185.1 419.807 182.563 418.605 179.947C418.365 179.37 418.002 178.851 417.54 178.428C416.767 177.783 415.855 177.922 415.006 177.631C412.471 176.783 411.432 173.365 409.759 170.77C408.302 168.504 406.768 169.2 405.159 170.301C403.239 171.563 401.528 173.118 400.09 174.909C399 176.289 397.961 178.378 396.377 178.086C394.045 177.669 392.638 173.504 390.433 173.137C388.76 172.871 387.417 174.82 386.061 176.061C385.199 176.871 384.414 177.808 383.527 178.593C380.029 181.656 377.748 187.125 374.161 190.201C370.575 193.277 363.047 198.189 360.221 192.492C359.905 191.872 359.626 190.112 359.347 189.783C358.726 189.062 356.927 189.593 356.255 189.695C354.481 189.935 353.011 191.113 351.325 191.594C350.357 191.787 349.359 191.78 348.393 191.573C347.428 191.367 346.515 190.964 345.711 190.391C343.722 188.998 342.492 185.327 340.566 184.062C339.071 183.049 335.928 183.846 334.496 184.543C332.734 185.403 331.226 186.935 329.427 187.771C327.841 188.497 326.098 188.814 324.358 188.695C322.122 188.727 319.955 189.472 318.173 190.821C316.564 191.91 315.132 193.67 313.51 194.771C311.888 195.872 311.457 196.771 310.025 198.417C308.593 200.062 306.426 197.771 304.436 198.543C302.21 199.578 300.224 201.066 298.607 202.911C297.34 204.291 296.452 206.708 295.223 208.215C294.183 209.442 292.836 210.372 291.32 210.911C289.254 211.896 287.341 213.175 285.643 214.709L342.505 276.244L438.589 201.43L432.646 201.176Z" fill="#D2E2CA"/>
<path d="M1118.78 38.6225C1118 38.2293 1117.27 37.731 1116.62 37.1414C1115.86 36.5338 1115.16 35.6476 1114.43 34.9514C1113.42 34.0146 1113.16 34.1792 1112.08 33.5463C1111.37 33.1412 1110.64 31.4196 1109.93 31.0145C1108.97 30.7041 1107.95 30.6388 1106.96 30.8246C1104.49 30.6157 1102.01 30.9796 1099.7 31.8879C1095.9 33.4352 1092.43 35.6762 1089.46 38.4959C1087.51 40.496 1085.66 42.7493 1083.64 44.6482C1081.63 46.547 1079.56 47.7496 1077.55 49.9143C1075.16 52.4461 1072.63 54.9779 1070.17 57.2818C1067.22 60.0921 1063.97 61.6618 1061.1 64.662C1058.53 67.1963 1055.71 69.4536 1052.67 71.3965C1050.58 72.789 1048.95 75.0677 1046.94 76.7133C1042.67 80.2199 1038.64 84.853 1034.27 88.1064C1033.97 88.3469 1033.66 88.5621 1033.35 88.7773C1031.17 90.2711 1029.07 92.0559 1026.92 93.651C1025.07 94.7878 1023.14 95.8109 1021.17 96.7145C1019.14 97.8917 1017.09 98.8032 1015.06 99.9552C1013.03 101.107 1011.35 102.993 1009.42 104.272C1006.88 105.943 1004.35 107.373 1001.82 108.905C999.83 110.066 997.909 111.334 996.062 112.703C989.003 118.032 980.969 117.678 973.352 118.944C969.677 119.564 965.914 119.437 962.353 121.032C959.229 122.613 956.222 124.416 953.355 126.425C949.553 128.856 946.157 132.755 942.685 136.033C938.67 139.786 933.984 142.749 928.871 144.768C927.604 145.325 925.792 142.666 924.639 141.869C922.319 140.236 920.482 137.514 918.302 135.324C916.834 133.765 915.519 132.07 914.374 130.261L913.93 129.577C913.233 128.488 912.118 126.286 911.167 125.716C910.217 125.146 909.406 125.716 908.544 125.438C907.733 124.998 906.973 124.472 906.276 123.868C904.489 122.501 902.474 121.108 900.649 119.488C898.818 117.64 896.777 116.013 894.566 114.64C892.817 113.703 891.259 114.095 889.497 113.969C887.736 113.842 886.038 111.931 884.428 110.323C883.669 109.402 882.995 108.415 882.413 107.373C881.805 106.449 880.766 106.183 880.043 105.512C878.421 104.019 877.027 101.069 875.05 100.36C873.073 99.6513 871.248 100.816 869.664 101.879C865.685 104.474 862.504 108.69 858.829 112.006C855.927 114.627 851.669 115.336 849.451 119.728C848.476 121.678 848.666 122.551 846.917 122.665C845.499 122.75 844.089 122.401 842.874 121.665C841.503 120.95 840.301 119.948 839.351 118.728C838.781 118.045 838.084 116.905 837.4 116.728C836.31 116.475 832.914 118.804 832.039 119.906C830.886 121.336 831.114 121.982 829.327 121.589C828.077 121.172 826.91 120.538 825.88 119.716C823.612 118.247 822.522 119.488 820.317 119.716C818.492 119.906 817.085 120.982 815.641 122.868C814.713 124.049 813.696 125.158 812.599 126.185C810.17 128.23 808.037 130.603 806.263 133.236L839.744 188.315H1119.32V38.6478C1119.14 38.6835 1118.96 38.6748 1118.78 38.6225V38.6225ZM628.68 151.49C627.265 150.233 625.752 149.09 624.156 148.072C623.624 147.705 623.092 147.325 622.572 146.933C620.55 145.499 618.828 143.684 617.503 141.59C616.895 140.641 616.236 139.692 615.665 138.755C615.095 137.818 614.728 136.805 614.259 136.021C613.232 134.676 612.02 133.482 610.66 132.476C609.116 131.105 607.648 129.651 606.262 128.121C605.349 126.834 604.359 125.604 603.297 124.438C602.486 123.716 601.586 123.362 600.762 122.602L599.229 120.564C598.553 120.045 597.783 119.662 596.96 119.437C596.132 118.642 595.408 117.744 594.806 116.766C592.778 113.677 590.396 111.209 587.481 112.665C585.933 113.31 584.61 114.397 583.679 115.792C582.412 117.5 581.664 118.133 579.966 117.779C577.026 117.159 575.163 112.829 572.464 111.88C571.252 111.597 569.982 111.694 568.827 112.158C567.902 112.563 567.154 114.133 566.191 114.69C563.733 115.956 560.691 113.969 558.195 115.095C556.281 115.969 553.911 119.463 552.429 121.615C550.682 124.056 549.106 126.615 547.714 129.273C547.082 130.709 546.198 132.021 545.104 133.147C543.444 134.704 540.947 135.198 539.021 135.755C535.802 136.679 533.191 138.717 530.213 140.628C526.12 143.261 522.229 146.578 518.174 149.35C517.68 149.692 516.907 149.768 516.463 150.186C515.437 151.085 515.297 152.363 514.448 153.477C513.181 155.136 511.686 156.503 510.38 158.224L509.747 159.035C505.365 164.807 500.23 169.967 494.476 174.377C492.427 175.708 490.598 177.347 489.052 179.238C488.133 180.725 487.068 182.116 485.871 183.39C484.87 184.239 483.768 184.416 482.741 185.175C481.474 186.112 480.207 187.707 479.015 188.846C476.772 190.935 474.377 192.454 472.388 195.176C471.113 196.785 469.751 198.323 468.307 199.784C466.71 201.569 465.304 203.581 463.846 205.569C463.021 206.57 462.133 207.518 461.185 208.404C460.044 209.67 459.145 211.265 458.004 212.417C456.407 214.038 454.38 214.468 452.77 216.139C451.161 217.81 449.032 218.823 447.397 220.76C446.382 222.159 444.956 223.207 443.317 223.76C442.151 224.076 441.035 223.76 439.882 224.089C439.008 224.393 438.273 225.241 437.411 225.621C435.836 226.53 434.166 227.264 432.431 227.811C431.442 228.001 430.492 227.557 429.491 227.899C428.29 228.499 427.148 229.211 426.082 230.026C424.307 231.292 422.571 232.558 422.571 232.558L434.927 249.268L454.266 275.383L468.89 295.106L498.899 280.181L655.521 202.328C653.747 202.088 630.074 152.806 628.68 151.49Z" fill="url(#paint1_linear_329_681)"/>
<path d="M1119.32 89.7015V412.505H168.864V353.109L305.856 296.372L342.164 281.371L358.892 274.434L380.308 265.572L389.179 261.889L420.367 248.964L443.178 239.508L454.152 234.963L464.29 230.748C465.688 230.887 467.1 230.745 468.443 230.332C469.785 229.919 471.032 229.243 472.109 228.342C473.212 227.444 474.048 226.228 475.037 225.304L475.341 225.038C475.445 224.934 475.56 224.841 475.683 224.76C475.861 224.623 476.052 224.504 476.253 224.406V224.406C476.496 224.278 476.751 224.177 477.014 224.102C478.813 223.628 480.648 223.302 482.501 223.127C484.706 222.861 486.987 220.177 489.104 218.95C491.127 217.801 493.248 216.831 495.44 216.051C498.266 215.013 501.257 213.519 504.07 215.038C506.364 216.304 508.151 218.836 510.558 219.709C511.755 220.192 513.045 220.4 514.333 220.316C515.621 220.233 516.873 219.861 517.997 219.228C520.925 217.456 523.738 214.557 526.488 212.266C528.82 210.329 531.228 208.582 533.547 206.62C536.17 204.379 538.046 202.176 540.986 200.847C545.383 198.847 549.4 194.328 552.974 189.998C557.658 184.062 562.653 178.379 567.94 172.972C569.778 171.2 571.806 169.871 573.618 168.061C575.95 165.731 577.825 162.339 579.891 159.516C582.069 156.534 584.449 153.705 587.013 151.047C590.599 147.338 594.325 144.907 597.367 140.034C598.578 138.023 600.001 136.147 601.612 134.438C603.145 132.869 604.438 130.818 605.984 129.375C607.53 127.932 608.975 126.286 610.521 124.83C611.327 124.019 612.049 123.129 612.675 122.172C613.562 120.982 613.942 121.121 615.007 120.577C619.252 118.374 620.824 112.374 623.878 107.816C623.912 107.769 623.942 107.718 623.966 107.665C624.37 107.053 624.738 106.419 625.069 105.766C625.487 104.981 625.893 104.196 626.336 103.462C626.336 103.462 626.336 103.462 626.336 103.386C626.499 103.098 626.676 102.819 626.869 102.55C627.335 101.838 627.917 101.209 628.592 100.69C629.387 100.201 630.238 99.8105 631.127 99.5249C631.912 99.1704 632.457 98.145 633.104 97.7779C635.853 96.2462 638.325 98.9299 640.771 100.019C641.86 100.5 642.849 101.145 643.875 101.487C645.331 101.734 646.817 101.734 648.273 101.487C649.793 101.411 650.909 100.322 652.341 99.7654C652.945 99.5687 653.583 99.4955 654.216 99.5502C655.243 99.5502 655.484 99.1578 656.231 98.7907C657.853 98.0438 658.17 98.0944 659.26 95.6765C661.366 91.301 663.026 86.725 664.215 82.0175C664.67 79.3116 665.726 76.742 667.307 74.4981C669.056 72.2713 670.943 70.1573 672.959 68.1686C675.157 66.1889 677.25 64.0974 679.232 61.9024C681.044 59.839 682.654 56.8389 684.593 55.1426C686.532 53.4463 688.496 52.5222 690.448 51.117C692.754 49.4587 694.515 46.7117 696.784 44.9521C699.052 43.1925 700.814 39.2429 702.373 36.0908C703.336 34.154 704.451 31.9767 705.515 30.2171C706.364 28.8119 707.467 27.9891 708.354 26.6472C708.655 26.0406 709.087 25.5086 709.62 25.0903C710.153 24.672 710.772 24.3778 711.434 24.2294C711.998 23.9617 712.529 23.6304 713.018 23.242C713.284 23.0647 713.601 23.4445 713.905 23.242C714.209 23.0394 714.538 22.128 714.906 21.5837C715.413 20.8368 716.021 20.0899 716.781 20.4064L717.06 20.495H717.238C719.012 20.8241 719.874 18.4316 721.863 18.4189C724.93 18.4189 725.994 19.2671 728.2 22.2166C729.476 23.8061 731.27 24.8989 733.269 25.3054C735.474 26.0016 737.286 27.66 739.339 28.8626C740.467 29.5208 741.696 29.5588 742.811 30.2297C743.483 30.6348 744.078 31.369 744.763 31.7108C747.221 32.9134 749.528 34.2426 751.999 35.4199C754.204 36.4706 756.371 37.6226 758.589 38.6732C759.501 39.1163 760.312 40.0277 761.199 40.4455C762.378 40.9898 763.658 40.7873 764.849 41.319C766.75 42.1671 768.397 43.8508 770.298 44.7622C772.445 45.6036 774.507 46.6463 776.457 47.8763C778.89 49.6486 781.742 49.4081 781.691 54.2058C781.691 58.0035 781.691 60.1555 783.858 62.3962C786.025 64.6368 787.394 66.1938 789.789 66.9407C792.653 67.8269 795.745 72.2068 797.963 74.9412C799.357 76.6628 799.965 78.3464 801.625 79.8149C803.195 81.185 804.892 82.4016 806.694 83.448C808.489 84.4307 810.39 85.2078 812.359 85.7646C813.081 86.0178 813.804 86.2583 814.513 86.5494C817.175 87.6254 820.343 85.8532 822.903 87.2204C824.677 88.1571 826.071 90.5623 827.592 92.2207C828.685 93.3636 829.94 94.3403 831.317 95.1195C833.028 96.2082 835.03 96.1576 836.5 97.6513C836.975 98.2688 837.491 98.8525 838.047 99.3983C838.351 99.6261 838.87 99.5122 839.149 99.8034C840.163 100.816 840.809 102.5 841.95 103.5C842.431 103.918 843.141 104.082 843.547 104.626C843.952 105.171 844.091 106.082 844.51 106.753C845.264 108.003 846.238 109.105 847.386 110.006C848.717 110.842 850.238 111.032 851.606 111.88C853.824 113.247 855.408 115.488 857.284 117.513C859.514 119.855 861.377 121.665 864.178 121.843C866.598 121.995 868.398 121.843 870.704 123.235C872.727 124.456 874.929 125.353 877.231 125.893C878.599 126.261 879.866 126.995 881.324 126.678C881.65 126.606 881.965 126.491 882.262 126.337C883.327 125.737 884.356 125.073 885.341 124.349C886.812 123.205 888.381 122.192 890.03 121.324C891.807 120.393 893.41 119.164 894.77 117.69C896.29 116.273 897.976 115.779 899.522 114.5C900.966 113.171 902.114 111.554 902.893 109.753C903.742 108.044 904.794 106.601 905.655 104.918C906.036 104.145 906.175 103.285 906.593 102.512C907.176 101.411 908.089 100.727 908.697 99.6135C909.698 97.8033 910.142 95.5246 911.295 93.9296L912.03 92.9422L912.689 92.0687C913.213 91.3738 913.679 90.6372 914.083 89.8661C914.171 89.7015 914.26 89.5116 914.349 89.3344C914.438 89.1572 914.666 88.6002 914.805 88.1951C914.945 87.79 914.957 87.7647 915.021 87.5368C916.586 82.8336 918.981 78.4478 922.092 74.5867C923.194 73.1942 923.815 71.2827 924.867 69.8776C925.905 68.7854 927 67.7501 928.15 66.7762C929.873 64.8573 931.755 63.0872 933.776 61.4847C935.678 60.0021 937.019 57.9173 937.578 55.573C938.389 52.6741 938.503 49.2435 939.72 46.7117C940.657 44.6736 941.608 42.914 942.52 40.7746C943.253 38.98 944.1 37.2337 945.055 35.5465C945.473 34.8882 945.993 34.8376 946.424 34.116C946.843 33.0251 947.178 31.9036 947.425 30.7614C948.16 28.5081 948.692 26.4827 949.528 24.4319C951.239 20.4697 951.885 16.077 953.723 12.254C954.671 10.4261 955.724 8.65504 956.879 6.9499C957.968 5.16498 958.767 3.15221 960.173 1.88631C960.334 1.72871 960.508 1.58476 960.693 1.45591C960.874 1.30842 961.064 1.17308 961.263 1.05082L961.618 0.848269C961.813 0.739871 962.017 0.646758 962.226 0.56977C965.585 -0.696126 968.905 1.9243 972.124 4.07633C976.444 7.06037 980.587 10.2939 984.53 13.7604C989.232 17.786 994.276 20.7608 997.875 27.2296C999.611 30.331 1001.07 34.5844 1003.22 36.9896C1006.02 40.1164 1009.56 40.3569 1012.8 41.0278C1019.22 42.2937 1026.19 42.357 1032.17 46.5345C1032.76 46.9522 1033.35 47.3826 1033.9 47.8004C1036.5 49.8258 1038.83 52.1677 1041.38 54.5096C1044.21 57.0414 1046.69 60.2568 1049.53 62.7379C1052.57 65.6336 1055.88 68.2282 1059.41 70.4852C1060.68 71.2068 1061.95 71.9663 1063.22 72.6499C1064.76 73.4854 1067.22 73.7765 1068.49 75.4982C1070.04 77.6042 1071.96 79.4138 1074.15 80.8402C1076.69 82.5619 1078.99 81.7644 1081.65 82.334C1083.96 82.8277 1085.58 84.8658 1087.69 85.9798C1089.16 86.7266 1091.17 86.0811 1092.76 86.119C1097.82 86.2203 1102.06 80.3845 1107.28 82.9923C1109.7 84.2932 1112.04 85.7302 1114.3 87.2963C1115.9 88.2376 1117.58 89.0422 1119.32 89.7015V89.7015Z" fill="url(#paint2_linear_329_681)"/>
<path d="M359.614 281.054C365.051 315.233 398.405 338.716 432.064 346.716C465.723 354.717 500.927 351.21 535.448 353.552C571.147 355.957 609.659 364.097 640.796 346.476C660.87 335.083 674.037 314.828 686.418 295.447C697.278 278.396 616.515 251.799 620.203 231.925C622.966 217.025 663.531 211.481 674.696 208.759C690.765 204.822 765.711 194.771 765.495 174.58C765.495 170.782 763.367 167.326 761.339 164.098C750.018 146.131 738.71 128.163 727.414 110.196C722.586 102.525 717.631 94.4738 716.858 85.448C716.085 76.4221 720.938 66.2063 729.771 64.1176C737.134 62.3707 748.97 63.2948 748.337 55.7501C748.147 53.4841 746.499 51.6359 744.953 49.9649L717.415 20.4062C717.253 20.3817 717.095 20.3348 716.946 20.267C716.199 19.9505 715.578 20.6974 715.071 21.4443C714.564 22.1911 714.501 22.7861 714.082 23.1026C713.664 23.4191 713.461 22.9633 713.183 23.1026C712.694 23.4847 712.168 23.8156 711.611 24.09C710.951 24.2354 710.331 24.527 709.798 24.9432C709.265 25.3595 708.832 25.8898 708.532 26.4952C707.645 27.837 706.542 28.6725 705.68 30.0777C704.616 31.8373 703.513 34.0019 702.537 35.9388C700.979 39.0529 699.268 42.9138 696.949 44.8C694.63 46.6862 692.995 49.3066 690.689 50.965C688.724 52.3701 686.722 53.3575 684.821 55.0031C682.92 56.6488 681.285 59.687 679.46 61.7504C677.484 63.9666 675.395 66.0793 673.2 68.0799C671.177 70.0619 669.289 72.1765 667.548 74.4093C665.966 76.6538 664.905 79.2227 664.443 81.9288C663.252 86.6356 661.592 91.2114 659.488 95.5878C658.398 97.993 658.082 97.9424 656.46 98.7019C655.687 99.0563 655.484 99.4614 654.445 99.4488C653.815 99.3978 653.181 99.4753 652.582 99.6766C651.15 100.221 650.047 101.31 648.514 101.398C647.058 101.639 645.572 101.639 644.116 101.398C643.057 100.957 642.021 100.463 641.012 99.9171C638.553 98.8285 636.094 96.1194 633.345 97.6892C632.698 98.0563 632.141 99.069 631.355 99.4235C630.472 99.7222 629.622 100.113 628.82 100.588C626.679 102.183 625.716 105.259 624.081 107.728C621.039 112.285 619.468 118.285 615.21 120.475C614.171 121.02 613.765 120.88 612.891 122.083C612.265 123.04 611.543 123.931 610.736 124.741C609.178 126.197 607.746 127.818 606.2 129.286C604.654 130.754 603.348 132.805 601.827 134.35C600.209 136.052 598.785 137.928 597.582 139.945C594.541 144.818 590.802 147.262 587.216 150.971C584.65 153.623 582.274 156.453 580.106 159.44C578.041 162.263 576.153 165.655 573.77 167.984C571.971 169.795 569.968 171.111 568.105 172.896C562.826 178.335 557.847 184.057 553.19 190.036C549.616 194.366 545.586 198.898 541.189 200.885C538.249 202.214 536.386 204.417 533.75 206.645C531.443 208.62 529.035 210.354 526.704 212.291C523.941 214.595 521.128 217.494 518.2 219.266C517.076 219.899 515.824 220.271 514.536 220.354C513.248 220.437 511.958 220.23 510.761 219.747C508.366 218.81 506.579 216.278 504.286 215.076C501.472 213.595 498.469 215.076 495.656 216.088C493.459 216.859 491.338 217.829 489.319 218.987C487.216 220.253 484.922 222.899 482.729 223.152C480.873 223.333 479.034 223.659 477.229 224.127C475.151 224.709 474.061 226.962 472.287 228.406C471.21 229.303 469.965 229.977 468.625 230.39C467.285 230.803 465.876 230.946 464.481 230.811L358.942 274.497C359.049 276.693 359.274 278.882 359.614 281.054V281.054Z" fill="url(#paint3_linear_329_681)"/>
<path d="M805.985 231.811C805.414 232.628 805.034 233.563 804.871 234.547C804.709 235.53 804.769 236.537 805.047 237.495C808.532 236.583 809.495 233.216 812.22 231.431C814.928 229.886 817.754 228.557 820.672 227.456C824.005 226.051 825.057 226.317 827.807 223.089C834.308 215.493 834.283 204.1 846.068 201.657C848.261 201.214 850.567 201.239 852.62 200.391C863.886 195.518 866.991 183.795 874.392 175.415C884.34 164.149 897.684 156.832 909.66 148.021C933.396 130.552 953.558 91.461 984.746 88.3975C1004.1 86.4987 1024.49 90.8154 1042.52 83.5871C1026.47 77.6796 1010.42 71.7468 994.364 65.7886C975.888 58.9275 971.452 56.7122 968.183 37.23C966.383 26.4952 964.913 11.5703 962.518 0.43042C961.76 0.719654 961.063 1.14913 960.465 1.69632C959.152 3.23437 958.044 4.9365 957.17 6.7599C956.023 8.4714 954.973 10.2465 954.027 12.0767C952.177 15.8744 951.493 20.2797 949.833 24.2419C948.933 26.3433 948.451 28.3687 947.729 30.5714C947.478 31.7181 947.139 32.8438 946.715 33.9387C946.297 34.6476 945.777 34.7109 945.359 35.3692C944.394 37.0512 943.547 38.7981 942.824 40.5973C941.912 42.6734 940.962 44.4963 940.024 46.5217C938.757 49.1548 938.681 52.5347 937.882 55.4462C937.327 57.7922 935.985 59.8781 934.08 61.358C932.059 62.9601 930.176 64.7302 928.454 66.6494C927.309 67.6192 926.217 68.6503 925.184 69.7382C924.132 71.1434 923.511 73.0675 922.409 74.46C919.298 78.3164 916.903 82.698 915.337 87.3975C914.523 89.7535 913.257 91.929 911.612 93.8029C910.446 95.3853 910.015 97.6639 909.014 99.4741C908.393 100.601 907.493 101.284 906.897 102.373C906.479 103.145 906.352 104.019 905.96 104.791C905.111 106.475 904.059 107.918 903.197 109.614C902.42 111.416 901.276 113.037 899.839 114.374C898.293 115.64 896.607 116.146 895.074 117.551C893.723 119.035 892.118 120.265 890.334 121.184C888.688 122.058 887.119 123.07 885.645 124.21C884.666 124.941 883.642 125.609 882.578 126.21C877.619 133.729 872.516 141.152 867.27 148.477C865.698 150.654 864.241 152.908 862.746 155.136C853.343 169.212 843.99 183.34 834.295 197.227C829.226 204.417 824.157 211.569 818.835 218.519C816.688 221.385 814.125 223.915 811.231 226.026C809.13 227.603 807.349 229.567 805.985 231.811Z" fill="url(#paint4_linear_329_681)"/>
<path d="M1119.32 116.944V412.53H477.761C481.106 408.543 484.503 404.682 488.038 401.049C490.003 399.011 492.018 397.036 494.083 395.162C510.621 380.111 529.567 369.313 546.041 354.388C548.639 352.046 551.174 349.59 553.645 346.995C557.447 343.02 561.02 338.501 564.683 333.918C568.104 329.614 571.577 325.259 575.214 321.259C577.417 318.797 579.752 316.456 582.209 314.246C583.02 313.537 583.831 312.841 584.668 312.183C590.257 307.766 596.358 304.039 602.84 301.081C622.99 291.738 644.534 289.384 664.506 278.826L671.957 274.902C691.739 264.534 711.636 254.42 731.304 243.799C748.133 234.71 767.269 216.734 786.607 222.127C809.418 228.456 832.356 218.671 854.634 213.266C865.71 210.557 877.027 207.746 886.595 201.265C892.019 197.594 896.733 192.834 902.334 189.429C908.671 185.542 916.008 183.606 922.991 181.074C945.384 172.909 961.858 153.325 983.845 147.781C990.382 146.137 997.192 145.891 1003.83 147.059C1005.65 147.455 1007.5 147.697 1009.36 147.781C1009.83 147.783 1010.3 147.754 1010.77 147.692C1016.05 146.996 1019.94 142.198 1024.84 140.097C1031.72 137.109 1039.63 139.679 1046.96 138.35C1056.3 136.666 1063.43 129.046 1070.86 122.754C1072.58 121.093 1074.62 119.801 1076.86 118.956C1088.55 115.425 1098.77 125.045 1111.79 119.336C1114.25 118.381 1116.76 117.582 1119.32 116.944V116.944Z" fill="#1A6357"/>
<path d="M286 225.648C284.377 225.943 282.727 226.055 281.079 225.982C271.604 226.205 262.128 226.81 252.685 227.351C248.05 227.622 243.416 227.797 238.798 227.908C231.366 228.067 223.966 228.02 216.598 227.765C190.928 226.95 165.461 222.917 140.795 215.762C115.952 208.439 91.7614 195.846 65.5487 193.57C47.7763 191.978 29.9242 190.768 12.6774 186.167C7.42207 184.766 2.00753 183.732 -3.35923 182.569L-10 31C-5.45004 34.2531 -0.729479 37.2608 4.1415 40.0104C7.51762 41.8253 11.4352 42.86 14.9865 44.3405C18.5328 45.588 21.8083 47.5008 24.6371 49.976C26.8666 51.9978 29.2554 53.0485 31.0072 55.5638C34.4629 60.5306 37.3772 63.4439 43.3013 65.4498C46.4864 66.5164 48.9707 68.4904 51.8372 70.0664C54.2737 71.4036 57.1403 72.0245 59.5131 73.4254C65.0117 77.0158 69.9307 81.423 74.1005 86.4953C82.5886 96.4768 89.1338 110.597 102.606 115.007C108.308 116.854 113.881 120.054 119.407 122.394C123.755 124.225 128.644 126.835 133.342 126.915C140.158 127.01 146.082 130.274 152.659 132.137C158.36 133.728 162.596 138.154 167.246 141.529C171.307 144.474 173.25 150.348 177.486 152.577C179.859 153.835 182.152 153.707 184.414 155.443C186.675 157.178 188.411 160.219 191.086 161.492C192.966 162.399 195.593 162.415 197.6 162.973C200.203 163.939 202.905 164.612 205.658 164.978C208.27 165.106 210.276 164.66 212.84 165.727C216.025 167.048 218.541 169.659 221.519 171.394C228.017 175.151 233.543 180.07 240.343 183.381C243.814 185.069 245.757 188.157 248.783 190.657C251.902 193.539 254.709 196.74 257.16 200.208C259.04 202.731 261.222 205.014 263.657 207.006C264.168 207.41 264.699 207.788 265.25 208.136C269.39 210.827 273.706 212.785 277.353 216.096C279.837 218.388 285.315 222.209 286 225.648Z" fill="#219E8B"/>
<path d="M1119.32 119.868V293.84H799.964C799.622 293.245 799.293 292.65 798.976 292.042C795.085 284.675 792.716 276.307 790.46 268.358C786.911 255.825 783.591 243.217 781.589 240.508C791.39 239.829 801.239 240.605 810.812 242.812C816.578 244.242 822.446 244.369 828.364 244.926C839.596 246.112 850.928 246.005 862.137 244.609C866.902 243.989 871.578 243.913 876.292 243.154L877.242 243.002C880.601 242.407 884.086 242.533 887.482 242.002C890.878 241.47 893.654 240.014 896.86 238.685C905.731 235.001 914.5 230.444 923.84 227.786C926.487 227.128 929.097 226.33 931.659 225.393C935.588 223.849 939.263 221.836 943.369 220.747C949.629 219.064 956.523 220.089 962.986 219.975C965.876 219.831 968.745 219.407 971.553 218.709C974.366 218.063 977.065 216.43 979.841 215.582C982.109 214.886 984.682 214.633 986.836 213.557C988.99 212.481 990.765 210.633 993.324 209.86C995.656 209.177 998.178 209.139 1000.47 208.392C1004.6 207.05 1007 203.088 1010.47 200.708C1014.82 197.733 1017.33 193.885 1020.32 189.53C1023.59 185.056 1026.55 180.366 1029.19 175.491C1031.95 169.985 1038.14 162.174 1044.48 160.478C1046.63 159.896 1048.49 160.313 1050.71 159.49C1052.92 158.668 1054.88 157.136 1057.45 156.959C1058.82 157.097 1060.2 157.135 1061.58 157.073C1063.3 156.693 1063.63 155.959 1065.08 155.06C1066.76 153.984 1068.82 153.465 1070.51 152.401C1072.78 150.996 1074.2 149.604 1077.08 149.338C1079.96 149.072 1080.46 150.123 1081.62 152.541C1082.61 154.367 1083.28 156.349 1083.6 158.402C1083.87 160.402 1083.33 161.427 1084.56 163.313C1086.04 165.567 1088.99 166.757 1090.89 168.681C1092.16 170.023 1094.34 172.238 1096.65 171.213C1098.65 170.289 1097.34 167.693 1097.6 165.769C1098.23 160.984 1100.13 157.035 1101.16 152.68C1101.77 150.501 1102.5 148.354 1103.34 146.249C1104.84 141.983 1105.62 136.616 1108.52 133.008C1110.36 130.729 1112.57 129.084 1114.22 126.678C1115.62 124.526 1117.17 121.501 1119.32 119.868Z" fill="url(#paint5_linear_329_681)"/>
<path d="M0 86.79V260.699H319.416C319.758 260.104 320.087 259.509 320.404 258.901C324.295 251.534 326.664 243.166 328.92 235.216C332.468 222.684 335.789 228.887 337.791 226.203C328.046 225.684 318.478 217.051 308.948 219.418C303.182 220.848 297.276 216.279 291.358 216.886C279.889 217.975 268.712 213.088 257.243 211.557C252.478 210.936 247.802 210.861 243.088 210.101L242.137 209.949C238.779 209.354 235.294 209.481 231.898 208.949C228.502 208.417 225.726 206.962 222.52 205.632C213.649 201.949 204.88 197.391 195.54 194.733C192.893 194.076 190.282 193.277 187.721 192.34C183.792 190.796 180.117 188.783 176.011 187.695C169.751 186.011 162.857 187.036 156.394 186.922C153.504 186.778 150.635 186.354 147.827 185.657C145.014 185.011 142.314 183.378 139.539 182.53C137.271 181.834 134.698 181.58 132.544 180.504C130.389 179.428 128.615 177.58 126.055 176.808C123.724 176.124 121.202 176.086 118.908 175.339C114.777 173.998 112.382 170.035 108.909 167.655C104.563 164.681 102.053 160.832 99.0625 156.478C95.7919 152.003 92.8282 147.313 90.1917 142.439C87.4417 136.869 81.194 129.033 74.845 127.337C72.7033 126.754 70.8404 127.172 68.6227 126.349C66.405 125.526 64.4534 123.995 61.8808 123.817C60.5084 123.956 59.1276 123.994 57.7495 123.931C56.026 123.552 55.6966 122.817 54.2519 121.919C52.5664 120.843 50.45 120.324 48.8153 119.26C46.5469 117.855 45.1275 116.463 42.2508 116.197C39.3741 115.931 38.8672 116.982 37.714 119.4C36.7216 121.226 36.0488 123.208 35.7244 125.261C35.4582 127.261 36.0032 128.286 34.7739 130.172C33.2912 132.426 30.3385 133.616 28.4376 135.54C27.1069 136.882 24.9906 139.097 22.6841 138.071C20.6819 137.147 21.9871 134.552 21.7337 132.628C21.1001 127.843 19.1992 123.893 18.1727 119.539C17.5566 117.359 16.8291 115.213 15.993 113.108C14.4849 108.842 13.7119 103.475 10.8098 99.8667C8.97228 97.5881 6.75455 95.9425 5.1071 93.5372C3.70043 91.4485 2.14169 88.423 0 86.79Z" fill="#1A6357"/>
</g>
<defs>
<linearGradient id="paint0_linear_329_681" x1="530.971" y1="214.505" x2="511.786" y2="130.225" gradientUnits="userSpaceOnUse">
<stop stop-color="#D2E2CA"/>
<stop offset="1" stop-color="#9FC9B5"/>
</linearGradient>
<linearGradient id="paint1_linear_329_681" x1="784.542" y1="195.227" x2="765.357" y2="110.947" gradientUnits="userSpaceOnUse">
<stop stop-color="#D2E2CA"/>
<stop offset="1" stop-color="#9FC9B5"/>
</linearGradient>
<linearGradient id="paint2_linear_329_681" x1="613.575" y1="83.4227" x2="632.468" y2="187.461" gradientUnits="userSpaceOnUse">
<stop stop-color="#129483"/>
<stop offset="1" stop-color="#3EAF98"/>
</linearGradient>
<linearGradient id="paint3_linear_329_681" x1="584.491" y1="292.992" x2="547.348" y2="141.344" gradientUnits="userSpaceOnUse">
<stop stop-color="#BED5B3"/>
<stop offset="1" stop-color="#3EAF98" stop-opacity="0.3"/>
</linearGradient>
<linearGradient id="paint4_linear_329_681" x1="949.326" y1="264.408" x2="900.901" y2="66.6884" gradientUnits="userSpaceOnUse">
<stop stop-color="#BED5B3"/>
<stop offset="1" stop-color="#3EAF98" stop-opacity="0.3"/>
</linearGradient>
<linearGradient id="paint5_linear_329_681" x1="973.314" y1="183.213" x2="933.172" y2="330.89" gradientUnits="userSpaceOnUse">
<stop stop-color="#002A2E"/>
<stop offset="0.99" stop-color="#075649"/>
</linearGradient>
<clipPath id="clip0_329_681">
<rect width="1119" height="219" fill="white"/>
</clipPath>
</defs>
</svg>
