<svg width="1122" height="227" viewBox="0 0 1122 227" fill="none" xmlns="http://www.w3.org/2000/svg">
<g clip-path="url(#clip0_281_1182)">
<path d="M258.549 140.74C264.424 143.55 271.453 143.27 277.765 141.57C293.55 137.32 308.638 124.72 324.226 129.57C338.451 134.02 343.754 150.33 347.102 164.35C348.007 168.14 348.984 172.08 351.615 175.02C357.428 181.52 368.253 180.29 376.572 177.28C384.891 174.27 393.657 169.98 402.267 172.17C408.391 173.73 414.142 178.5 420.246 176.89C422.429 176.31 424.332 174.94 426.485 174.44C432.724 173.04 438.048 178.79 440.876 184.28C443.705 189.77 446.2 196.28 452.086 198.59L23.2926 256.45L0.145508 32.09C19.8285 17.5757 43.4418 8.82013 68.1622 6.87001C83.2816 5.70001 101.219 8.72 108.124 21.71C111.607 28.24 111.451 35.92 112.543 43.18C113.635 50.44 116.806 58.35 123.836 61.18C129.701 63.57 136.366 61.71 142.709 61.18C149.052 60.65 156.862 62.49 158.619 68.38C159.503 71.38 158.556 74.54 159.076 77.58C160.459 85.51 171.087 88.69 179.239 86.9C188.338 84.9 196.584 82.9 204.102 88.23C211.62 93.56 216.05 101.96 219.346 110.35C221.779 116.56 224.452 123.69 230.857 126.19C236.202 128.27 242.639 126.36 247.807 128.81C253.287 131.43 257.103 135.02 258.549 140.74Z" fill="#009ADE"/>
<path d="M879.995 134.1C874.13 136.92 867.101 136.64 860.789 134.94C845.004 130.69 829.916 118.09 814.328 122.94C800.103 127.39 794.8 143.7 791.452 157.72C790.547 161.5 789.559 165.45 786.928 168.39C781.126 174.89 770.343 173.66 761.972 170.65C753.601 167.64 744.887 163.34 736.277 165.54C730.152 167.09 724.391 171.87 718.288 170.25C716.114 169.68 714.211 168.31 712.048 167.81C705.809 166.41 700.485 172.15 697.657 177.64C694.829 183.13 692.333 189.64 686.447 191.96L1115.25 249.79L1138.39 25.4401C1118.71 10.9287 1095.1 2.17638 1070.38 0.230064C1055.27 -0.929936 1037.33 2.09006 1030.43 15.0701C1026.95 21.6101 1027.1 29.2901 1026.01 36.5501C1024.92 43.8101 1021.75 51.7101 1014.72 54.5501C1008.85 56.9301 1002.19 55.0801 995.845 54.5501C989.502 54.0201 981.692 55.8701 979.935 61.7601C979.051 64.7601 979.997 67.9201 979.467 70.9501C978.095 78.8901 967.467 82.0701 959.315 80.2801C950.216 78.2801 941.97 76.2801 934.452 81.6101C926.934 86.9401 922.504 95.3301 919.208 103.72C916.764 109.94 914.102 117.07 907.697 119.56C902.352 121.64 895.915 119.73 890.747 122.19C885.267 124.79 881.451 128.39 879.995 134.1Z" fill="#009ADE"/>
<path d="M766.86 111.03C755.879 113.95 746.292 119.49 735.966 123.71C725.64 127.93 713.63 130.87 702.597 128.07C698.5 127.07 694.642 125.22 690.368 124.92C679.304 124.13 671.339 133.24 666.847 141.51C662.355 149.78 657.488 159.44 646.819 162.01C641.173 163.37 635.007 162.34 629.298 163.49C618.535 165.67 612.473 174.59 605.069 181.31C592.425 192.8 568.674 198.36 554.585 188.09C547.919 183.24 544.498 175.75 537.094 171.67C523.035 163.9 503.424 172.27 487.109 168.37C467.59 163.7 460.561 144.24 445.192 133.37C429.594 122.37 406.177 121.37 386.742 126.92C377.778 129.48 369.366 133.29 360.205 135.31C351.044 137.33 340.51 137.31 332.857 132.76C326.368 128.88 323.02 122.42 317.259 117.88C307.557 110.28 292.199 109.24 279.325 112.45C266.452 115.66 255.409 122.45 244.729 129.09V246.89L831.424 251.28V122.41C813.32 110.94 788.645 105.23 766.86 111.03Z" fill="#009ADE"/>
<path d="M223.298 164.04C228.341 167.09 234.736 167.44 240.57 166.45C255.221 163.97 270.008 153.89 283.63 159.64C296.108 164.88 299.321 180.06 301.027 193C301.484 196.49 302.004 200.14 304.146 203C308.784 209.37 318.631 209.18 326.441 207.19C334.25 205.2 342.548 202.06 350.118 204.79C355.494 206.72 367.556 226.79 373.224 225.87C375.303 225.53 374.513 232.15 376.551 231.87C382.27 231.14 385.743 233.31 387.781 238.51C389.82 243.71 394.894 245.57 399.989 248.19H0.145508V43.7C19.2666 32.2916 41.3999 26.4209 63.8988 26.79C77.6561 27.04 93.5658 31.31 98.5883 43.63C101.125 49.82 100.262 56.74 100.574 63.4C100.886 70.06 103.018 77.45 109.091 80.64C114.165 83.29 120.352 82.19 126.134 82.25C131.915 82.31 138.789 84.65 139.829 90.12C140.349 92.87 139.194 95.67 139.382 98.46C139.891 105.74 149.187 109.53 156.716 108.62C165.118 107.62 172.75 106.51 179.031 111.96C185.312 117.41 188.535 125.38 190.74 133.24C192.362 139.06 194.109 145.72 199.651 148.53C204.279 150.86 210.279 149.69 214.709 152.36C219.409 155.23 222.528 158.76 223.298 164.04Z" fill="#007CB2"/>
<path d="M1096.38 54.8199C1091.18 60.0199 1089.33 68.0699 1082.99 71.8999C1076.08 76.0699 1066.86 73.3299 1060.01 69.0299C1053.17 64.7299 1047.14 58.9299 1039.36 56.5499C1027.52 52.9099 1013.37 59.2099 1008.51 70.2399C1006.51 74.8199 1005.95 80.0399 1002.97 84.0999C997.706 91.2799 987.245 92.1799 978.146 93.0099C966.708 94.0099 954.999 96.0899 945.006 101.63C935.013 107.17 926.851 116.71 925.748 127.75C925.062 134.58 927.059 141.38 927.547 148.22C928.036 155.06 926.508 162.77 920.768 166.81C916.608 169.7 911.159 170.09 906.064 169.65C894.574 168.65 883.634 163.99 872.113 163.4C852.865 162.4 833.638 174.18 826.359 191.4C821.888 201.99 820.058 215.95 808.911 219.92C803.347 221.92 797.191 220.5 791.233 220.66C784.644 220.947 778.297 223.132 773.016 226.932C767.735 230.732 763.763 235.972 761.618 241.97L1133.23 251.97V50.5599C1120.6 47.8199 1105.3 45.7599 1096.38 54.8199Z" fill="#007CB2"/>
<path d="M739.366 212.23C733.127 216.11 726.888 221.04 719.453 221.74C711.321 222.49 704.354 216.06 700.236 209.28C696.118 202.5 693.436 194.7 687.581 189.22C678.691 180.87 663.062 180.39 653.62 188.22C649.699 191.46 646.767 195.88 642.181 198.22C634.123 202.37 624.348 198.68 615.832 195.49C605.079 191.49 593.703 188.28 582.192 188.93C570.681 189.58 558.931 194.6 552.806 203.99C549.011 209.8 547.607 216.73 544.872 223.06C542.137 229.39 537.198 235.64 530.158 236.77C525.115 237.57 520.03 235.56 515.694 232.97C505.888 227.13 498.276 218.26 488.242 212.77C471.49 203.6 448.811 205.83 434.325 218.06C425.393 225.61 417.261 237.3 405.438 236.06C399.553 235.44 394.686 231.53 389.321 229.12C383.295 226.544 376.604 225.769 370.114 226.894C363.625 228.019 357.637 230.993 352.926 235.43L680.542 404.43L808.942 219.88C798.866 211.96 771.861 192.17 739.366 212.23Z" fill="#007CB2"/>
<path d="M1131.61 278.23L1122.82 98.42C1112.13 98.16 1101.27 97.92 1090.94 100.28C1080.61 102.64 1070.75 108.06 1066.33 116.28C1059.44 129.13 1066.02 147.35 1049.62 154.68C1047.53 155.58 1045.32 156.218 1043.06 156.58C1028.2 159.11 1013.25 155.52 998.861 151.96C985.624 148.68 971.939 145.36 958.255 146.78C944.57 148.2 930.771 155.65 927.673 167.03C925.593 174.59 928.484 182.64 925.115 190.14C924.025 192.549 922.215 194.592 919.915 196.01C911.711 201.01 905.69 194.67 898.432 194.41C889.427 194.09 883.874 202.93 883.094 210.53C882.314 218.13 883.677 226.42 878.935 232.9C872.904 241.07 859.281 242.76 848.301 240.23C837.32 237.7 827.784 231.99 817.313 228.23C806.842 224.47 794 222.85 784.62 228.3C777.986 232.16 774.43 238.75 768.96 243.74C758.437 253.33 740.208 256.08 726.42 250.17C723.414 248.88 720.004 247.17 716.915 248.32C714.981 249.03 713.796 250.68 712.548 252.11C705.394 260.24 691.283 263.34 680.313 259.18C673.668 256.64 667.242 251.66 660.191 253.18C656.032 254.09 652.996 257.11 648.93 258.18C639.405 260.66 630.285 251.61 620.386 252.58C616.081 253 612.389 255.26 608.459 256.79H608.396C606.605 257.458 604.686 257.751 602.767 257.649C600.848 257.547 598.974 257.053 597.27 256.2C559.835 237.43 541.461 252.44 534.754 252.75C526.903 253.11 519.489 255.75 512.127 258.04C509.215 258.96 506.127 259.85 503.059 259.46C496.685 258.65 493.004 252.91 487.368 250.27C473.195 243.63 453.843 258.54 440.294 251.03C437.07 249.24 434.856 246.44 432.266 244.03C425.871 238.03 415.982 234.28 406.738 236.14C400.208 237.46 394.863 241.31 388.988 244.07C383.113 246.83 375.47 248.41 369.927 245.18C365.134 242.38 363.501 236.84 358.863 233.85C348.6 227.22 332.545 237.25 321.262 231.93C312.475 227.79 312.267 217.45 309.273 209.32C302.628 191.24 274.958 180.91 254.94 190.21C251.768 191.771 248.239 192.541 244.677 192.45C233.509 191.94 234.903 182.73 229.61 177.82C220.896 169.76 203.26 179 192.633 172.82C185.645 168.74 185.354 160.14 186.799 153.06C188.244 145.98 190.574 138.28 186.57 131.95C181.974 124.67 170.972 122.41 161.291 121.79C151.61 121.17 141.014 121.17 133.319 116.1C124.543 110.32 127.808 110.52 116.047 92.2C81.8051 38.81 14.4851 76.65 0 85.4L0.291189 277.3H582.421C582.657 277.612 582.918 277.906 583.201 278.18L1131.61 278.23Z" fill="#005085"/>
<path d="M790.609 34.64C790.11 32.11 781.854 31.47 772.162 33.22C762.471 34.97 755.015 38.44 755.525 40.97C755.615 41.3295 755.827 41.6497 756.128 41.88C757.396 43.5 760.869 46.8 768.606 47.48C769.489 47.5446 770.338 47.832 771.068 48.313C771.798 48.7941 772.384 49.4519 772.765 50.22L775.334 55.42L776.498 55.21L777.663 54.99L778.1 49.26C778.164 48.4169 778.456 47.6045 778.946 46.903C779.437 46.2015 780.109 45.6352 780.897 45.26C787.874 41.93 789.871 37.64 790.432 35.69C790.613 35.3694 790.676 34.9992 790.609 34.64Z" fill="#007CB2"/>
<path d="M788.146 38.3499C789.637 34.5527 790.32 30.5058 790.152 26.4499C789.988 22.405 789.536 18.3756 788.801 14.3899" stroke="#007CB2" stroke-width="2" stroke-linecap="round" stroke-linejoin="round"/>
<path d="M759.269 43.55C756.45 40.5264 754.29 36.9901 752.916 33.15C751.554 29.3205 750.456 25.4086 749.63 21.4399" stroke="#007CB2" stroke-width="2" stroke-linecap="round" stroke-linejoin="round"/>
<path d="M761.213 40.2799C758.517 36.6169 756.518 32.5237 755.307 28.1899" stroke="#007CB2" stroke-width="2" stroke-linecap="round" stroke-linejoin="round"/>
<path d="M764.905 39.5501C761.874 32.5704 759.699 25.2744 758.427 17.8101" stroke="#007CB2" stroke-width="2" stroke-linecap="round" stroke-linejoin="round"/>
<path d="M768.856 36.2899C767.388 32.8215 766.49 29.1542 766.194 25.4199" stroke="#007CB2" stroke-width="2" stroke-linecap="round" stroke-linejoin="round"/>
<path d="M784.121 36.1501C785.256 31.7958 785.576 27.2822 785.067 22.8201" stroke="#007CB2" stroke-width="2" stroke-linecap="round" stroke-linejoin="round"/>
<path d="M780.398 36.75C780.596 29.1921 779.877 21.6377 778.256 14.24" stroke="#007CB2" stroke-width="2" stroke-linecap="round" stroke-linejoin="round"/>
<path d="M775.49 35.09C775.559 31.3449 775.015 27.6126 773.878 24.03" stroke="#007CB2" stroke-width="2" stroke-linecap="round" stroke-linejoin="round"/>
<path d="M771.862 35.5199C771.508 27.9999 768.742 20.6999 768.742 13.1699" stroke="#007CB2" stroke-width="2" stroke-linecap="round" stroke-linejoin="round"/>
<path d="M371.57 53.23C372.684 52.8845 373.693 52.2818 374.509 51.4747C375.324 50.6676 375.922 49.6806 376.249 48.6C374.67 48.5119 373.097 48.8588 371.716 49.6C370.632 50.1751 369.697 50.9785 368.981 51.95C367.246 51.6738 365.557 51.1761 363.958 50.47C364.123 49.984 364.314 49.5066 364.53 49.04C363.223 48.5507 361.985 47.902 360.849 47.11C359.708 46.3053 358.842 45.191 358.364 43.91C356.595 44.6249 355.016 45.7155 353.747 47.1C351.145 46.9235 348.539 47.3774 346.167 48.42C345.22 48.84 344.316 49.35 343.38 49.8C343.234 49.8743 343.108 49.9809 343.014 50.1111C342.919 50.2412 342.858 50.3912 342.836 50.5485C342.813 50.7059 342.83 50.8661 342.885 51.0159C342.94 51.1657 343.031 51.3008 343.151 51.41C344.066 52.1646 345.098 52.7786 346.208 53.23C347.667 53.8643 349.181 54.3762 350.731 54.76C350.951 55.024 351.187 55.2745 351.439 55.51C352.087 56.1287 352.926 56.5287 353.83 56.65C354.026 56.6819 354.227 56.6502 354.402 56.56C354.725 56.35 354.683 55.88 354.589 55.51C354.585 55.4601 354.585 55.4099 354.589 55.36C355.026 55.36 355.453 55.41 355.889 55.41H356.326C356.839 55.8984 357.404 56.3341 358.01 56.71C358.773 57.1929 359.679 57.4213 360.589 57.36C360.788 57.3561 360.98 57.2853 361.13 57.16C361.4 56.9 361.265 56.45 361.13 56.16C360.995 55.87 360.766 55.48 360.569 55.16L363.397 54.87C364.297 55.7302 365.323 56.458 366.444 57.03C366.623 57.1569 366.834 57.2351 367.056 57.2562C367.277 57.2773 367.5 57.2406 367.702 57.15C367.849 57.0083 367.958 56.8336 368.018 56.6416C368.078 56.4496 368.087 56.2463 368.045 56.05C368.001 55.5057 367.921 54.9646 367.806 54.43C368.211 54.43 368.617 54.38 369.012 54.38C369.466 55.3451 370.109 56.2175 370.905 56.95C372.065 57.9833 373.508 58.6771 375.064 58.95C375.026 57.7914 374.687 56.6605 374.076 55.6611C373.466 54.6617 372.604 53.8257 371.57 53.23Z" fill="#009ADE"/>
<path d="M404.711 44.84C405.849 44.58 406.904 44.0557 407.783 43.3131C408.662 42.5705 409.339 41.6322 409.754 40.58C408.188 40.3612 406.59 40.5763 405.147 41.2C404.027 41.6969 403.033 42.4239 402.236 43.33C400.528 42.9262 398.884 42.304 397.349 41.48C397.557 41.0067 397.785 40.5467 398.035 40.1C396.773 39.5114 395.595 38.7686 394.531 37.89C393.456 37.0068 392.684 35.8322 392.316 34.52C390.489 35.0905 388.823 36.059 387.449 37.35C384.871 36.9724 382.235 37.2269 379.785 38.09C378.808 38.43 377.862 38.88 376.895 39.25C376.742 39.3125 376.608 39.409 376.502 39.5316C376.396 39.6543 376.323 39.7994 376.287 39.9549C376.251 40.1104 376.255 40.2719 376.297 40.4258C376.34 40.5798 376.42 40.7218 376.531 40.84C377.374 41.6409 378.338 42.3151 379.39 42.84C380.795 43.5796 382.263 44.2019 383.778 44.7C383.973 44.9847 384.188 45.2554 384.423 45.51C385.016 46.1759 385.82 46.6362 386.711 46.82C386.902 46.865 387.103 46.8474 387.283 46.77C387.626 46.59 387.616 46.12 387.553 45.77V45.61C387.979 45.67 388.406 45.72 388.843 45.75H389.279C389.751 46.2737 390.277 46.7496 390.85 47.17C391.571 47.7068 392.454 48.0049 393.366 48.02C393.563 48.0306 393.759 47.9739 393.917 47.86C394.219 47.61 394.115 47.16 393.969 46.81C393.824 46.46 393.667 46.1 393.491 45.75L396.34 45.68C397.163 46.6049 398.127 47.4041 399.199 48.05C399.574 48.28 400.063 48.49 400.437 48.28C400.596 48.1483 400.72 47.9809 400.796 47.7926C400.872 47.6042 400.899 47.4007 400.874 47.2C400.87 46.6553 400.835 46.1111 400.77 45.57C401.175 45.57 401.581 45.57 401.976 45.57C402.346 46.566 402.915 47.483 403.65 48.27C404.714 49.3968 406.093 50.2056 407.622 50.6C407.658 49.485 407.412 48.3782 406.905 47.3749C406.397 46.3716 405.645 45.5017 404.711 44.84Z" fill="#009ADE"/>
<path d="M407.164 70.16C408.108 69.8947 408.969 69.4116 409.674 68.7527C410.379 68.0939 410.906 67.2794 411.209 66.38C409.886 66.2615 408.555 66.5078 407.372 67.09C406.453 67.5536 405.651 68.2056 405.022 69C403.58 68.7271 402.182 68.2732 400.863 67.65C401.015 67.245 401.188 66.8478 401.383 66.46C400.297 66.0179 399.274 65.4467 398.336 64.76C397.397 64.0603 396.698 63.1058 396.329 62.02C394.823 62.5771 393.471 63.4599 392.377 64.6C390.198 64.3899 387.999 64.7097 385.982 65.53C385.171 65.86 384.402 66.27 383.611 66.63C383.485 66.6862 383.375 66.7713 383.29 66.8779C383.206 66.9846 383.15 67.1094 383.127 67.2416C383.105 67.3739 383.116 67.5094 383.161 67.6364C383.205 67.7634 383.282 67.8779 383.383 67.97C384.118 68.6236 384.957 69.1604 385.868 69.56C387.075 70.1241 388.331 70.5858 389.622 70.94C389.802 71.171 389.997 71.3914 390.204 71.6C390.733 72.1304 391.426 72.4813 392.18 72.6C392.342 72.6313 392.51 72.6102 392.658 72.54C392.939 72.37 392.918 71.97 392.845 71.67C392.845 71.62 392.845 71.58 392.845 71.53C393.209 71.53 393.573 71.59 393.885 71.6H394.249C394.671 72.0192 395.134 72.3977 395.632 72.73C396.264 73.1472 397.019 73.3576 397.785 73.33C397.951 73.3324 398.112 73.2794 398.242 73.18C398.471 72.96 398.367 72.58 398.242 72.29C398.117 72 397.951 71.71 397.795 71.43L400.176 71.24C400.911 71.9815 401.756 72.615 402.682 73.12C402.809 73.2504 402.978 73.3351 403.161 73.3603C403.345 73.3855 403.531 73.3495 403.691 73.2583C403.85 73.1671 403.972 73.0263 404.036 72.8593C404.1 72.6922 404.104 72.5089 404.045 72.34C404.023 71.8806 403.971 71.4229 403.889 70.97H404.928C405.277 71.7934 405.793 72.5415 406.447 73.17C407.393 74.0654 408.582 74.6859 409.878 74.96C409.87 74.0073 409.618 73.0711 409.144 72.2341C408.671 71.397 407.991 70.6847 407.164 70.16Z" fill="#009ADE"/>
<path d="M437.444 57.4099C438.344 57.0298 439.134 56.4439 439.745 55.7031C440.356 54.9624 440.769 54.0893 440.949 53.1599C439.766 53.1958 438.613 53.5238 437.601 54.1123C436.588 54.7007 435.75 55.5299 435.167 56.5199C433.693 56.4365 432.238 56.1606 430.841 55.6999C430.945 55.2799 431.049 54.8699 431.195 54.4599C430.06 54.1535 428.97 53.71 427.951 53.1399C426.924 52.567 426.101 51.7097 425.59 50.6799C424.176 51.4055 422.953 52.4315 422.013 53.6799C419.817 53.7384 417.672 54.3264 415.774 55.3899C415.025 55.8199 414.318 56.3299 413.569 56.7799C413.456 56.8564 413.363 56.9582 413.299 57.0766C413.235 57.195 413.201 57.3265 413.201 57.4599C413.201 57.5934 413.235 57.7249 413.299 57.8433C413.363 57.9616 413.456 58.0634 413.569 58.1399C414.393 58.6892 415.297 59.1173 416.252 59.4099C417.529 59.8191 418.841 60.1202 420.172 60.3099C420.373 60.5212 420.592 60.7153 420.828 60.8899C421.42 61.347 422.149 61.6099 422.907 61.6399C423.07 61.6518 423.231 61.6094 423.365 61.5199C423.625 61.3099 423.542 60.9299 423.427 60.6299C423.43 60.5866 423.43 60.5432 423.427 60.4999L424.467 60.4399L424.831 60.3899C425.303 60.7546 425.811 61.0729 426.349 61.3399C427.031 61.6759 427.808 61.7917 428.564 61.6699C428.729 61.6542 428.881 61.5792 428.99 61.4599C429.198 61.2199 429.042 60.8499 428.876 60.5899C428.71 60.3299 428.512 60.0399 428.314 59.7799L430.654 59.3099C431.48 59.9552 432.402 60.4777 433.389 60.8599C433.547 60.9477 433.726 60.9939 433.909 60.9939C434.091 60.9939 434.271 60.9477 434.429 60.8599C434.541 60.7297 434.617 60.5743 434.65 60.4081C434.682 60.242 434.671 60.0706 434.616 59.9099C434.527 59.4608 434.413 59.0168 434.273 58.5799C434.606 58.5299 434.938 58.4699 435.313 58.4399C435.766 59.2165 436.378 59.8968 437.112 60.4399C438.169 61.2101 439.43 61.6781 440.751 61.7899C440.613 60.856 440.239 59.9688 439.663 59.2054C439.086 58.4421 438.325 57.8257 437.444 57.4099Z" fill="#009ADE"/>
<path d="M464.667 44.87C465.279 44.4714 465.781 43.9352 466.129 43.3078C466.477 42.6805 466.661 41.981 466.664 41.27C465.69 41.4812 464.798 41.9486 464.085 42.62C463.537 43.152 463.118 43.794 462.858 44.5C461.761 44.6448 460.648 44.6448 459.551 44.5C459.551 44.18 459.551 43.86 459.634 43.5C458.754 43.4228 457.887 43.238 457.055 42.95C456.22 42.6548 455.495 42.1253 454.976 41.43C454.032 42.1588 453.274 43.0858 452.761 44.14C451.151 44.4683 449.653 45.1801 448.404 46.21C447.905 46.62 447.458 47.09 446.969 47.51C446.897 47.5797 446.843 47.6646 446.811 47.7579C446.779 47.8513 446.77 47.9505 446.786 48.0477C446.801 48.1449 446.839 48.2373 446.898 48.3176C446.957 48.3978 447.035 48.4637 447.125 48.51C447.807 48.8122 448.533 49.0112 449.277 49.1C450.279 49.2432 451.292 49.2968 452.303 49.26C452.478 49.3919 452.666 49.5058 452.865 49.6C453.368 49.8679 453.949 49.9698 454.518 49.89C454.644 49.8781 454.761 49.8252 454.851 49.74C455.007 49.55 454.851 49.28 454.768 49.08C454.747 49.0522 454.729 49.022 454.716 48.99L455.506 48.8L455.766 48.71C456.163 48.9272 456.585 49.0984 457.024 49.22C457.571 49.3954 458.162 49.3954 458.709 49.22C458.829 49.1869 458.933 49.1121 459 49.01C459.114 48.8 459 48.56 458.782 48.38C458.563 48.2 458.439 48.03 458.251 47.86L459.915 47.21C460.617 47.5751 461.37 47.8412 462.151 48C462.283 48.0441 462.425 48.0554 462.563 48.0326C462.701 48.0099 462.831 47.954 462.941 47.87C463.005 47.7581 463.038 47.6326 463.038 47.505C463.038 47.3774 463.005 47.2519 462.941 47.14C462.819 46.8169 462.673 46.5028 462.504 46.2C462.743 46.11 462.993 46.03 463.232 45.96C463.676 46.4746 464.225 46.8965 464.844 47.2C465.731 47.6388 466.731 47.8228 467.724 47.73C467.497 47.0491 467.099 46.4323 466.566 45.9337C466.033 45.435 465.381 45.0698 464.667 44.87Z" fill="#009ADE"/>
<path d="M432.516 43.2301C433.004 43.0253 433.431 42.7084 433.761 42.3073C434.091 41.9062 434.314 41.4333 434.409 40.9301C433.77 40.9495 433.147 41.1272 432.6 41.4461C432.054 41.7649 431.602 42.2141 431.289 42.7501C430.489 42.7033 429.699 42.5553 428.939 42.3101C429.002 42.0801 429.054 41.8601 429.137 41.6401C428.522 41.4764 427.931 41.2378 427.38 40.9301C426.821 40.6241 426.374 40.1596 426.1 39.6001C425.332 39.9994 424.67 40.5641 424.166 41.2501C422.983 41.2797 421.826 41.5999 420.808 42.1801C420.402 42.4101 420.017 42.6901 419.612 42.9301C419.55 42.9715 419.499 43.0268 419.464 43.0912C419.428 43.1557 419.41 43.2274 419.41 43.3001C419.41 43.3729 419.428 43.4445 419.464 43.509C419.499 43.5734 419.55 43.6287 419.612 43.6701C420.054 43.9675 420.542 44.1969 421.057 44.3501C421.735 44.5699 422.43 44.7338 423.137 44.8401C423.247 44.9513 423.365 45.0549 423.49 45.1501C423.811 45.4015 424.21 45.5424 424.624 45.5501C424.715 45.5567 424.806 45.5358 424.884 45.4901C425.019 45.3801 424.977 45.1701 424.884 45.0101V44.9401H425.477H425.674C425.926 45.143 426.202 45.3175 426.496 45.4601C426.863 45.643 427.283 45.7061 427.691 45.6401C427.78 45.6269 427.861 45.5845 427.92 45.5201C428.035 45.3901 427.92 45.1901 427.858 45.0501C427.795 44.9101 427.66 44.7501 427.556 44.6101L428.814 44.3601C429.264 44.7071 429.765 44.9869 430.301 45.1901C430.378 45.2552 430.476 45.2924 430.578 45.2953C430.68 45.2981 430.78 45.2665 430.86 45.2059C430.941 45.1452 430.996 45.0594 431.018 44.9633C431.039 44.8673 431.025 44.7671 430.977 44.6801C430.922 44.4401 430.859 44.2001 430.79 43.9601L431.331 43.8801C431.581 44.2973 431.913 44.664 432.308 44.9601C432.883 45.3756 433.568 45.6253 434.284 45.6801C434.225 45.1626 434.032 44.6675 433.723 44.2397C433.414 43.8118 433 43.4648 432.516 43.2301Z" fill="#009ADE"/>
<path d="M467.341 61.8099C467.802 61.5545 468.189 61.1934 468.468 60.7589C468.748 60.3243 468.911 59.8299 468.943 59.3199C468.31 59.4116 467.713 59.6585 467.208 60.0368C466.704 60.4152 466.309 60.9122 466.062 61.4799C465.264 61.515 464.464 61.4545 463.681 61.2999C463.681 61.0699 463.743 60.8399 463.795 60.6099C463.162 60.5165 462.543 60.3451 461.955 60.0999C461.368 59.8525 460.872 59.4415 460.53 58.9199C459.817 59.4034 459.227 60.0359 458.804 60.7699C457.635 60.9407 456.527 61.3873 455.581 62.0699C455.206 62.3499 454.853 62.6599 454.541 62.9499C454.484 62.9962 454.439 63.0548 454.411 63.121C454.382 63.1872 454.37 63.259 454.377 63.3304C454.383 63.4018 454.406 63.4707 454.446 63.5315C454.485 63.5923 454.539 63.6432 454.603 63.6799C455.079 63.9341 455.596 64.1098 456.132 64.1999C456.844 64.3434 457.568 64.4271 458.295 64.4499C458.416 64.5487 458.545 64.6389 458.679 64.7199C459.031 64.9298 459.442 65.0278 459.854 64.9999C459.946 64.9898 460.032 64.9552 460.104 64.8999C460.218 64.7799 460.104 64.5699 460.104 64.4199V64.3599C460.291 64.3599 460.489 64.2999 460.686 64.2499H460.873C461.152 64.4164 461.448 64.5538 461.757 64.6599C462.143 64.8006 462.566 64.8182 462.964 64.7099C463.051 64.6878 463.127 64.6386 463.182 64.5699C463.276 64.4199 463.182 64.2399 463.057 64.0999L462.704 63.7099L463.931 63.3099C464.417 63.6059 464.946 63.8316 465.501 63.9799C465.698 64.0299 465.938 64.0599 466.073 63.9099C466.117 63.83 466.141 63.7407 466.141 63.6499C466.141 63.5592 466.117 63.4699 466.073 63.3899C465.996 63.1538 465.902 62.9232 465.792 62.6999L466.333 62.5599C466.609 62.9543 466.962 63.2938 467.373 63.5599C468 63.9191 468.723 64.0929 469.452 64.0599C469.327 63.5437 469.068 63.0664 468.699 62.6729C468.33 62.2793 467.863 61.9824 467.341 61.8099Z" fill="#009ADE"/>
<path d="M374.107 69.13C374.427 69.0652 374.726 68.9254 374.976 68.7231C375.227 68.5207 375.421 68.262 375.542 67.97C375.106 67.8997 374.659 67.9518 374.253 68.12C373.936 68.2502 373.656 68.4487 373.432 68.7C372.956 68.5712 372.498 68.3865 372.069 68.15C372.132 68.02 372.204 67.89 372.277 67.77C371.927 67.5988 371.602 67.3835 371.31 67.13C371.012 66.8804 370.802 66.5487 370.707 66.18C370.196 66.3312 369.727 66.5909 369.334 66.94C368.618 66.8218 367.882 66.8768 367.192 67.1L366.371 67.41C366.327 67.4257 366.288 67.4515 366.258 67.4852C366.227 67.5189 366.206 67.5594 366.195 67.603C366.185 67.6467 366.186 67.6921 366.199 67.7352C366.211 67.7783 366.235 67.8177 366.267 67.85C366.491 68.087 366.755 68.2864 367.047 68.44C367.436 68.6552 367.843 68.8392 368.263 68.99C368.316 69.068 368.375 69.1416 368.44 69.21C368.596 69.4025 368.816 69.5368 369.064 69.59C369.118 69.61 369.177 69.61 369.23 69.59C369.324 69.54 369.324 69.41 369.314 69.31C369.309 69.2936 369.309 69.2763 369.314 69.26L369.667 69.31H369.792C369.922 69.4614 370.068 69.5989 370.229 69.72C370.427 69.8724 370.671 69.96 370.925 69.97C370.976 69.9847 371.031 69.9847 371.081 69.97C371.165 69.9 371.081 69.77 371.081 69.67C371.081 69.57 370.998 69.47 370.946 69.37H371.747C371.971 69.6321 372.234 69.8612 372.527 70.05C372.631 70.12 372.766 70.18 372.87 70.12C372.915 70.0833 372.95 70.0371 372.974 69.9851C372.997 69.9331 373.008 69.8766 373.005 69.82C373.005 69.67 373.005 69.52 373.005 69.37H373.338C373.436 69.6531 373.592 69.9147 373.795 70.14C374.069 70.4531 374.43 70.6854 374.835 70.81C374.867 70.494 374.817 70.1753 374.69 69.8823C374.563 69.5892 374.363 69.3308 374.107 69.13Z" fill="#009ADE"/>
<path d="M395.861 55.05C396.171 54.9499 396.451 54.7781 396.676 54.5497C396.901 54.3212 397.064 54.0432 397.151 53.74C396.758 53.7201 396.367 53.7969 396.014 53.9631C395.661 54.1294 395.358 54.3795 395.134 54.69C394.645 54.6212 394.169 54.4866 393.719 54.29L393.875 53.9C393.509 53.7622 393.16 53.5844 392.835 53.37C392.51 53.1502 392.263 52.8395 392.128 52.48C391.635 52.6853 391.198 52.9966 390.849 53.39C390.132 53.3483 389.415 53.4861 388.77 53.79C388.499 53.91 388.25 54.05 387.99 54.18C387.948 54.2002 387.912 54.2301 387.885 54.267C387.859 54.304 387.842 54.3467 387.837 54.3914C387.832 54.4361 387.838 54.4813 387.856 54.523C387.873 54.5647 387.902 54.6014 387.938 54.63C388.191 54.8358 388.475 55.0044 388.78 55.13C389.191 55.2992 389.615 55.4363 390.049 55.54L390.257 55.75C390.439 55.9164 390.672 56.0217 390.922 56.05C390.976 56.0701 391.035 56.0701 391.088 56.05C391.172 55.99 391.161 55.86 391.088 55.76C391.016 55.66 391.088 55.76 391.088 55.71H391.567C391.714 55.8447 391.874 55.9652 392.045 56.07C392.262 56.2024 392.517 56.2654 392.773 56.25C392.827 56.2473 392.879 56.226 392.919 56.19C392.991 56.11 392.919 55.99 392.919 55.89C392.919 55.79 392.815 55.7 392.752 55.61L393.543 55.52C393.796 55.7594 394.087 55.9586 394.406 56.11C394.459 56.1419 394.52 56.1589 394.582 56.1589C394.645 56.1589 394.706 56.1419 394.759 56.11C394.853 56.05 394.853 55.91 394.842 55.8C394.833 55.6481 394.809 55.4973 394.769 55.35H395.113C395.27 55.6768 395.507 55.9622 395.804 56.1816C396.101 56.401 396.449 56.548 396.818 56.61C396.804 56.2943 396.71 55.9868 396.543 55.7147C396.376 55.4426 396.142 55.2143 395.861 55.05Z" fill="#009ADE"/>
<path d="M481.39 50.9401C481.657 50.7606 481.874 50.5209 482.023 50.242C482.171 49.9631 482.247 49.6535 482.242 49.3401C481.812 49.436 481.419 49.6475 481.109 49.9501C480.869 50.1909 480.691 50.4819 480.589 50.8001C480.099 50.8601 479.603 50.8601 479.112 50.8001V50.3701C478.723 50.3422 478.339 50.2683 477.968 50.1501C477.594 50.0274 477.267 49.7971 477.033 49.4901C476.62 49.8225 476.289 50.2393 476.065 50.7101C475.359 50.869 474.704 51.1956 474.163 51.6601C473.944 51.8501 473.747 52.0601 473.539 52.2501C473.503 52.2801 473.476 52.3182 473.46 52.3609C473.444 52.4036 473.439 52.4494 473.447 52.4943C473.454 52.5391 473.473 52.5815 473.502 52.6175C473.53 52.6535 473.568 52.6819 473.611 52.7001C473.916 52.8255 474.238 52.9064 474.568 52.9401C475.013 52.9965 475.462 53.0132 475.909 52.9901L476.159 53.1401C476.387 53.2503 476.645 53.2888 476.897 53.2501C476.953 53.2438 477.004 53.2191 477.043 53.1801C477.116 53.1001 477.043 52.9801 477.043 52.8901C477.16 52.8696 477.275 52.8395 477.386 52.8001H477.5C477.68 52.8904 477.868 52.9641 478.062 53.0201C478.306 53.0951 478.567 53.0951 478.811 53.0201C478.837 53.0123 478.862 52.9995 478.884 52.9823C478.905 52.9651 478.923 52.944 478.935 52.9201C478.987 52.8301 478.936 52.7201 478.842 52.6401L478.603 52.4201L479.331 52.1101C479.656 52.2775 480.007 52.3924 480.37 52.4501C480.495 52.4501 480.641 52.4501 480.714 52.3801C480.742 52.3311 480.757 52.2761 480.757 52.2201C480.757 52.1641 480.742 52.109 480.714 52.0601C480.651 51.9201 480.589 51.7801 480.516 51.6501L480.828 51.5401C481.033 51.7604 481.28 51.9405 481.556 52.0701C481.952 52.2584 482.396 52.3314 482.835 52.2801C482.737 51.9548 482.551 51.66 482.298 51.4249C482.044 51.1898 481.731 51.0227 481.39 50.9401Z" fill="#009ADE"/>
<path d="M438.651 73.7301C439.13 73.5087 439.545 73.1778 439.861 72.7664C440.176 72.355 440.382 71.8756 440.46 71.3701C439.742 71.4212 439.053 71.6674 438.474 72.0801C438.037 72.4071 437.682 72.8239 437.434 73.3001C436.634 73.2762 435.84 73.1519 435.074 72.9301C435.074 72.7001 435.178 72.4801 435.24 72.2501C434.62 72.1098 434.022 71.8912 433.462 71.6001C432.895 71.3066 432.432 70.8575 432.131 70.3101C431.383 70.7395 430.743 71.3237 430.259 72.0201C429.083 72.0789 427.942 72.423 426.942 73.0201C426.536 73.2601 426.162 73.5501 425.767 73.8001C425.705 73.8415 425.654 73.8968 425.619 73.9612C425.584 74.0257 425.565 74.0973 425.565 74.1701C425.565 74.2428 425.584 74.3145 425.619 74.3789C425.654 74.4434 425.705 74.4987 425.767 74.5401C426.218 74.8253 426.713 75.0413 427.233 75.1801C427.934 75.3755 428.651 75.5159 429.375 75.6001C429.49 75.7045 429.611 75.8014 429.739 75.8901C430.067 76.1328 430.47 76.2631 430.883 76.2601C430.972 76.2645 431.06 76.2398 431.133 76.1901C431.268 76.0701 431.216 75.8601 431.133 75.7101V75.6401C431.328 75.6306 431.522 75.6106 431.715 75.5801H431.913C432.175 75.7684 432.457 75.9293 432.755 76.0601C433.129 76.2352 433.554 76.2845 433.961 76.2001C434.049 76.1869 434.13 76.1445 434.19 76.0801C434.294 75.9501 434.19 75.7501 434.107 75.6101C434.023 75.4701 433.899 75.3201 433.784 75.1901L435.043 74.8901C435.502 75.2228 436.01 75.4889 436.55 75.6801C436.737 75.7401 436.977 75.7901 437.122 75.6801C437.179 75.6066 437.217 75.5207 437.231 75.4301C437.246 75.3394 437.237 75.2467 437.205 75.1601C437.152 74.9194 437.083 74.6822 436.997 74.4501L437.538 74.3501C437.809 74.7491 438.163 75.0896 438.578 75.3501C439.165 75.7483 439.857 75.9805 440.574 76.0201C440.474 75.5159 440.246 75.0434 439.91 74.644C439.575 74.2447 439.142 73.9308 438.651 73.7301Z" fill="#009ADE"/>
<path d="M332.004 139.92C324.986 139.954 318.044 141.313 311.571 143.92C304.441 146.802 298.175 151.353 293.342 157.16C292.804 157.969 292.05 158.625 291.159 159.06C290.566 159.28 289.901 159.28 289.297 159.47C288.988 159.535 288.708 159.693 288.499 159.921C288.289 160.15 288.161 160.437 288.133 160.74C288.428 161.117 288.8 161.432 289.225 161.667C289.65 161.903 290.121 162.053 290.608 162.11C291.555 162.179 292.488 162.367 293.384 162.67C294.444 163.29 295.364 164.11 296.088 165.08C298.286 167.446 301.23 169.054 304.469 169.66C306.486 170.03 308.628 170.01 310.51 170.66C311.613 171.06 312.59 171.66 313.63 172.13C315.604 173.075 317.805 173.493 320.004 173.34C318.895 172.355 317.954 171.207 317.217 169.94C316.482 168.661 316.232 167.176 316.51 165.74C316.831 164.693 317.278 163.687 317.841 162.74C319.102 162.818 320.352 163.012 321.574 163.32C321.956 163.408 322.328 163.529 322.687 163.68C323.292 163.938 323.873 164.246 324.424 164.6C324.519 164.663 324.633 164.695 324.749 164.692C324.864 164.689 324.976 164.651 325.068 164.584C325.161 164.516 325.228 164.422 325.262 164.316C325.295 164.209 325.293 164.095 325.255 163.99C324.857 162.976 324.639 161.904 324.611 160.82C324.629 160.173 324.717 159.53 324.871 158.9C325.362 156.885 326.354 155.015 327.762 153.45C327.84 153.368 327.89 153.264 327.904 153.153C327.918 153.042 327.895 152.93 327.838 152.832C327.782 152.735 327.695 152.657 327.589 152.61C327.484 152.563 327.366 152.549 327.252 152.57C325.36 152.97 323.557 153.692 321.928 154.7C320.478 155.585 318.974 156.386 317.425 157.1C317.259 156.85 317.082 156.59 316.926 156.33C316.029 154.906 315.662 153.231 315.886 151.58C316.086 150.581 316.459 149.621 316.989 148.74C317.667 147.476 318.613 146.362 319.765 145.47C320.708 144.821 321.723 144.274 322.791 143.84C325.73 142.379 328.804 141.184 331.973 140.27C332.007 140.255 332.037 140.232 332.059 140.203C332.08 140.174 332.093 140.14 332.097 140.104C332.1 140.068 332.093 140.032 332.077 140C332.06 139.967 332.035 139.94 332.004 139.92Z" fill="#005085"/>
<path d="M723.789 57.8C729.303 57.8282 734.759 58.8985 739.844 60.95C745.443 63.2157 750.365 66.7906 754.163 71.35C754.589 71.989 755.185 72.5068 755.889 72.85C756.346 73.02 756.866 73.02 757.345 73.16C757.823 73.3 758.281 73.69 758.26 74.16C758.027 74.456 757.736 74.7042 757.402 74.8897C757.067 75.0752 756.698 75.1944 756.315 75.24C755.571 75.2959 754.837 75.4437 754.132 75.68C753.311 76.1705 752.603 76.817 752.052 77.58C750.325 79.4361 748.013 80.697 745.47 81.17C743.865 81.3207 742.276 81.595 740.718 81.99C739.854 82.3 739.075 82.78 738.232 83.14C736.689 83.8999 734.961 84.2453 733.231 84.14C734.1 83.3661 734.837 82.465 735.414 81.47C736 80.4642 736.198 79.2925 735.976 78.16C735.727 77.3397 735.378 76.5508 734.936 75.81C733.946 75.8695 732.964 76.0202 732.004 76.26C731.705 76.3358 731.413 76.4327 731.13 76.55C730.654 76.75 730.198 76.9909 729.768 77.27C729.692 77.3176 729.603 77.3415 729.513 77.3385C729.423 77.3354 729.336 77.3054 729.264 77.2528C729.192 77.2001 729.139 77.1274 729.112 77.0445C729.085 76.9616 729.085 76.8727 729.113 76.79C729.432 75.9952 729.601 75.152 729.612 74.3C729.603 73.7913 729.537 73.2849 729.414 72.79C729.028 71.2085 728.251 69.7402 727.147 68.51C727.089 68.4451 727.053 68.3646 727.044 68.2792C727.034 68.1939 727.052 68.1079 727.095 68.0328C727.138 67.9576 727.204 67.8969 727.284 67.8589C727.364 67.8209 727.454 67.8073 727.543 67.82C729.022 68.1309 730.432 68.6967 731.702 69.49C732.841 70.1857 734.022 70.8167 735.238 71.38C735.38 71.1835 735.512 70.9799 735.633 70.77C736.331 69.6499 736.606 68.3326 736.413 67.04C736.255 66.256 735.963 65.5025 735.55 64.81C735.012 63.819 734.268 62.9444 733.366 62.24C732.626 61.7266 731.827 61.297 730.985 60.96C728.676 59.8145 726.264 58.874 723.778 58.15C723.73 58.1487 723.684 58.129 723.651 58.0952C723.618 58.0614 723.6 58.0164 723.602 57.97C723.603 57.9236 723.623 57.8796 723.659 57.8477C723.694 57.8158 723.74 57.7987 723.789 57.8Z" fill="#005085"/>
<path d="M564.088 58.68C564.996 58.2257 565.802 57.6038 566.459 56.85C567.437 55.74 568.061 54.39 569.007 53.26C571.388 50.43 575.402 49.44 578.449 47.26C579.832 46.26 580.996 45.05 582.307 43.98C583.566 42.8439 585.128 42.0652 586.82 41.73C587.668 41.5781 588.543 41.6643 589.342 41.9782C590.14 42.2921 590.827 42.8203 591.322 43.4999C591.612 44.1927 591.959 44.8616 592.362 45.4999C592.856 45.9336 593.451 46.2464 594.097 46.4118C594.743 46.5772 595.422 46.5903 596.074 46.45C598.248 46.2 600.358 45.45 602.542 45.35C604.726 45.25 607.19 45.9499 608.22 47.8099C608.572 48.6174 608.738 49.4885 608.707 50.3635C608.677 51.2386 608.45 52.0969 608.043 52.88C610.044 54.0246 612.393 54.4763 614.698 54.16C616.956 53.7556 618.995 52.6019 620.459 50.9C621.706 51.815 622.698 53.0124 623.348 54.3854C623.997 55.7585 624.283 57.2647 624.181 58.77C624.087 60.296 623.607 61.7769 622.782 63.0839C621.958 64.391 620.814 65.4847 619.45 66.27C618.259 65.007 616.756 64.0522 615.081 63.493C613.406 62.9339 611.612 62.7884 609.863 63.07C609.977 64.4 610.903 65.5 610.778 66.83C610.674 68 609.488 68.83 608.344 69.21C606.636 69.836 604.797 70.0644 602.979 69.8767C601.161 69.689 599.415 69.0905 597.884 68.13C594.368 68.8964 590.766 69.2324 587.163 69.13C586.976 69.768 586.827 70.4157 586.716 71.07C586.657 71.3624 586.522 71.6358 586.324 71.8648C586.125 72.0938 585.87 72.271 585.582 72.38C585.034 72.4496 584.478 72.3214 584.022 72.02C582.21 71.0688 580.559 69.8583 579.125 68.43C575.628 68.0797 572.344 66.6481 569.766 64.35C568.092 62.85 566.646 60.97 564.567 60.1C564.205 60.0054 563.885 59.8022 563.652 59.52C563.537 59.23 563.714 58.64 564.088 58.68Z" fill="#009ADE"/>
</g>
<defs>
<clipPath id="clip0_281_1182">
<rect width="1122" height="227" fill="white"/>
</clipPath>
</defs>
</svg>
